M48
;Layer_Color=9474304
;FILE_FORMAT=2:5
INCH,TZ
;TYPE=PLATED
T1F00S00C0.01500
T2F00S00C0.04000
;TYPE=NON_PLATED
T3F00S00C0.07087
%
T01
X14400Y19700
X15800Y25200
X22900Y19200
X30100Y19400
X37000Y19600
X47600Y19954
X39700Y50100
X34700Y53700
X72200Y39800
X73900Y20400
X79500Y20500
X86400Y20800
X98000Y29600
X101200Y31900
X109200Y31800
X104500Y37300
X101000Y42000
X97800Y39700
X93500Y42500
X100500Y52500
X110000Y50500
X119600Y38000
X119900Y34300
X116000Y19291
X111600Y19400
X106500Y19350
X144200Y18300
X150100Y18500
X157300Y18700
X147500Y27900
X191000Y33000
X185500Y51700
X211200Y18100
X213600Y20800
X219100
X222200Y19100
X223600Y31200
X214300Y31700
X218500Y51700
X224000Y53300
X238900Y41000
X236800Y19500
X242200Y19600
X251600Y19800
X239100Y72200
X225900Y74500
X226600Y79000
X228800Y64300
X218500Y64200
X215900Y86500
X216370Y92600
X207600Y81400
X209900Y78800
X210500Y73600
X208600Y64300
X198900Y64500
X190600Y73500
X186700Y76500
X193500Y102900
X160300Y102200
X131400Y108500
X108600Y91900
X112200Y69000
X88800Y77000
X81400Y56900
T02
X197800Y95100
X204400Y108700
X40400Y64400
X25000Y64900
T03
X7874Y23622
X258268
M30
