G04*
G04 #@! TF.GenerationSoftware,Altium Limited,Altium Designer,20.0.11 (256)*
G04*
G04 Layer_Color=65535*
%FSLAX25Y25*%
%MOIN*%
G70*
G01*
G75*
%ADD10C,0.00787*%
%ADD11C,0.00984*%
%ADD12C,0.00492*%
%ADD13C,0.02362*%
%ADD14C,0.00300*%
%ADD15C,0.00600*%
%ADD16C,0.01000*%
D10*
X30000Y64900D02*
X29898Y65907D01*
X29595Y66872D01*
X29104Y67756D01*
X28445Y68524D01*
X27645Y69143D01*
X26737Y69589D01*
X25757Y69842D01*
X24747Y69894D01*
X23747Y69740D01*
X22798Y69389D01*
X21939Y68854D01*
X21206Y68157D01*
X20628Y67326D01*
X20229Y66397D01*
X20026Y65406D01*
Y64394D01*
X20229Y63403D01*
X20628Y62473D01*
X21206Y61643D01*
X21939Y60946D01*
X22798Y60411D01*
X23747Y60060D01*
X24747Y59906D01*
X25757Y59958D01*
X26737Y60211D01*
X27645Y60657D01*
X28445Y61276D01*
X29104Y62044D01*
X29595Y62928D01*
X29898Y63894D01*
X30000Y64900D01*
X45400Y64400D02*
X45298Y65407D01*
X44995Y66372D01*
X44504Y67256D01*
X43845Y68024D01*
X43045Y68643D01*
X42136Y69089D01*
X41157Y69342D01*
X40147Y69394D01*
X39147Y69240D01*
X38198Y68889D01*
X37339Y68354D01*
X36606Y67657D01*
X36028Y66826D01*
X35629Y65897D01*
X35426Y64906D01*
Y63894D01*
X35629Y62903D01*
X36028Y61974D01*
X36606Y61143D01*
X37339Y60446D01*
X38198Y59911D01*
X39147Y59560D01*
X40147Y59406D01*
X41157Y59458D01*
X42136Y59711D01*
X43045Y60157D01*
X43845Y60776D01*
X44504Y61544D01*
X44995Y62428D01*
X45298Y63393D01*
X45400Y64400D01*
X209400Y108700D02*
X209298Y109706D01*
X208995Y110672D01*
X208504Y111556D01*
X207845Y112324D01*
X207045Y112943D01*
X206136Y113389D01*
X205157Y113642D01*
X204147Y113694D01*
X203147Y113540D01*
X202198Y113189D01*
X201340Y112654D01*
X200606Y111957D01*
X200028Y111126D01*
X199629Y110197D01*
X199426Y109206D01*
Y108194D01*
X199629Y107203D01*
X200028Y106273D01*
X200606Y105443D01*
X201340Y104746D01*
X202198Y104211D01*
X203147Y103860D01*
X204147Y103706D01*
X205157Y103758D01*
X206136Y104011D01*
X207045Y104457D01*
X207845Y105076D01*
X208504Y105844D01*
X208995Y106728D01*
X209298Y107694D01*
X209400Y108700D01*
X202800Y95100D02*
X202698Y96106D01*
X202395Y97072D01*
X201904Y97956D01*
X201245Y98724D01*
X200445Y99343D01*
X199537Y99789D01*
X198557Y100042D01*
X197547Y100094D01*
X196547Y99940D01*
X195598Y99589D01*
X194739Y99054D01*
X194006Y98357D01*
X193428Y97527D01*
X193029Y96597D01*
X192826Y95606D01*
Y94594D01*
X193029Y93603D01*
X193428Y92673D01*
X194006Y91843D01*
X194739Y91146D01*
X195598Y90611D01*
X196547Y90260D01*
X197547Y90106D01*
X198557Y90158D01*
X199537Y90411D01*
X200445Y90857D01*
X201245Y91476D01*
X201904Y92244D01*
X202395Y93128D01*
X202698Y94094D01*
X202800Y95100D01*
X233053Y29757D02*
X234628D01*
Y26608D02*
Y29757D01*
X225572D02*
X227147D01*
X225572Y26608D02*
Y29757D01*
X216419Y74963D02*
Y82837D01*
X218781Y74963D02*
Y82837D01*
X216419D02*
X218781D01*
X216419Y74963D02*
X218781D01*
X225640Y85709D02*
X244656D01*
X225640Y114291D02*
X244656D01*
X29049Y79053D02*
Y85747D01*
X35151Y79053D02*
Y85747D01*
X247130Y63065D02*
X249295D01*
X247130Y42475D02*
X249295D01*
Y63065D01*
X188705Y42475D02*
X190870D01*
X188705Y63065D02*
X190870D01*
X188705Y42475D02*
Y63065D01*
X55118Y89567D02*
X78740D01*
X55118D02*
Y113189D01*
X78740D01*
Y89567D02*
Y113189D01*
X122925Y40425D02*
Y93575D01*
X176075Y40425D02*
X176075Y93575D01*
X122925Y40425D02*
X176075Y40425D01*
X122925Y93575D02*
X176075D01*
D11*
X224490Y23360D02*
X223752Y23786D01*
Y22934D01*
X224490Y23360D01*
X221832Y73388D02*
X221094Y73814D01*
Y72962D01*
X221832Y73388D01*
X217727Y110000D02*
X216989Y110426D01*
Y109574D01*
X217727Y110000D01*
X32592Y89093D02*
X31854Y89519D01*
Y88667D01*
X32592Y89093D01*
X85370Y114953D02*
X84632Y115379D01*
Y114526D01*
X85370Y114953D01*
X176370Y97512D02*
X175632Y97938D01*
Y97086D01*
X176370Y97512D01*
D12*
X187994Y111209D02*
X187502D01*
X187994D01*
D13*
X173319Y89638D02*
X172874Y90561D01*
X171875Y90789D01*
X171074Y90150D01*
Y89125D01*
X171875Y88486D01*
X172874Y88714D01*
X173319Y89638D01*
D14*
X4733Y114071D02*
X4400Y114404D01*
X3733D01*
X3400Y114071D01*
Y113738D01*
X3733Y113405D01*
X4400D01*
X4733Y113071D01*
Y112738D01*
X4400Y112405D01*
X3733D01*
X3400Y112738D01*
X5399Y114404D02*
X6732D01*
X6066D01*
Y112405D01*
X7399D02*
Y114404D01*
X8065Y113738D01*
X8732Y114404D01*
Y112405D01*
X9398Y114071D02*
X9731Y114404D01*
X10398D01*
X10731Y114071D01*
Y113738D01*
X10398Y113405D01*
X10064D01*
X10398D01*
X10731Y113071D01*
Y112738D01*
X10398Y112405D01*
X9731D01*
X9398Y112738D01*
X12730Y112405D02*
X11397D01*
X12730Y113738D01*
Y114071D01*
X12397Y114404D01*
X11731D01*
X11397Y114071D01*
X16729D02*
X16396Y114404D01*
X15729D01*
X15396Y114071D01*
Y112738D01*
X15729Y112405D01*
X16396D01*
X16729Y112738D01*
X17395Y112405D02*
Y114404D01*
X18062Y113738D01*
X18728Y114404D01*
Y112405D01*
X3400Y109286D02*
Y111285D01*
X4400D01*
X4733Y110952D01*
Y110285D01*
X4400Y109952D01*
X3400D01*
X4066D02*
X4733Y109286D01*
X5399D02*
Y111285D01*
X6399D01*
X6732Y110952D01*
Y110285D01*
X6399Y109952D01*
X5399D01*
X7399Y111285D02*
Y109286D01*
X8732D01*
X12730D02*
X11397D01*
X12730Y110619D01*
Y110952D01*
X12397Y111285D01*
X11731D01*
X11397Y110952D01*
X13397D02*
X13730Y111285D01*
X14396D01*
X14730Y110952D01*
Y109619D01*
X14396Y109286D01*
X13730D01*
X13397Y109619D01*
Y110952D01*
X16729Y109286D02*
X15396D01*
X16729Y110619D01*
Y110952D01*
X16396Y111285D01*
X15729D01*
X15396Y110952D01*
X17395D02*
X17729Y111285D01*
X18395D01*
X18728Y110952D01*
Y109619D01*
X18395Y109286D01*
X17729D01*
X17395Y109619D01*
Y110952D01*
X3400Y106167D02*
Y107499D01*
X4066Y108166D01*
X4733Y107499D01*
Y106167D01*
Y107166D01*
X3400D01*
X5399Y106167D02*
X6066D01*
X5733D01*
Y107499D01*
X5399D01*
X8398Y108166D02*
Y106167D01*
X7399D01*
X7066Y106500D01*
Y107166D01*
X7399Y107499D01*
X8398D01*
X9398D02*
X10064D01*
X10398Y107166D01*
Y106167D01*
X9398D01*
X9065Y106500D01*
X9398Y106833D01*
X10398D01*
X11064Y106167D02*
Y107499D01*
X12064D01*
X12397Y107166D01*
Y106167D01*
X15063Y108166D02*
Y106167D01*
X16063D01*
X16396Y106500D01*
Y107833D01*
X16063Y108166D01*
X15063D01*
X17395Y106167D02*
X18062D01*
X18395Y106500D01*
Y107166D01*
X18062Y107499D01*
X17395D01*
X17062Y107166D01*
Y106500D01*
X17395Y106167D01*
X19062Y107499D02*
Y106500D01*
X19395Y106167D01*
X20394D01*
Y107499D01*
X21727Y105500D02*
X22061D01*
X22394Y105833D01*
Y107499D01*
X21394D01*
X21061Y107166D01*
Y106500D01*
X21394Y106167D01*
X22394D01*
X23060Y108166D02*
Y106167D01*
Y107166D01*
X23393Y107499D01*
X24060D01*
X24393Y107166D01*
Y106167D01*
X26059D02*
X25393D01*
X25060Y106500D01*
Y107166D01*
X25393Y107499D01*
X26059D01*
X26392Y107166D01*
Y106833D01*
X25060D01*
X27059Y107499D02*
Y106167D01*
Y106833D01*
X27392Y107166D01*
X27725Y107499D01*
X28059D01*
X29392Y107833D02*
Y107499D01*
X29058D01*
X29725D01*
X29392D01*
Y106500D01*
X29725Y106167D01*
X30724Y107499D02*
Y106500D01*
X31058Y106167D01*
X32057D01*
Y105833D01*
X31724Y105500D01*
X31391D01*
X32057Y106167D02*
Y107499D01*
D15*
X249236Y68518D02*
X247903D01*
X248570D01*
Y64519D01*
X249236Y65186D01*
X247751Y40959D02*
X250417D01*
X247751Y38293D01*
Y37627D01*
X248418Y36960D01*
X249751D01*
X250417Y37627D01*
X189945Y68518D02*
X188612D01*
X189278D01*
Y64519D01*
X189945Y65186D01*
X186613Y68518D02*
X185280D01*
X185946D01*
Y64519D01*
X186613Y65186D01*
X189945Y40959D02*
X188612D01*
X189278D01*
Y36960D01*
X189945Y37627D01*
X183947Y40959D02*
X186613D01*
X183947Y38293D01*
Y37627D01*
X184613Y36960D01*
X185946D01*
X186613Y37627D01*
D16*
X12901Y59303D02*
Y63301D01*
Y61302D01*
X18899D01*
Y65301D02*
X12901D01*
Y68300D01*
X13901Y69299D01*
X15900D01*
X16900Y68300D01*
Y65301D01*
X18899Y74298D02*
X12901D01*
X15900Y71299D01*
Y75297D01*
X30201Y58803D02*
Y62801D01*
Y60802D01*
X36199D01*
Y64801D02*
X30201D01*
Y67800D01*
X31201Y68799D01*
X33200D01*
X34200Y67800D01*
Y64801D01*
X31201Y70799D02*
X30201Y71798D01*
Y73798D01*
X31201Y74797D01*
X32200D01*
X33200Y73798D01*
Y72798D01*
Y73798D01*
X34200Y74797D01*
X35199D01*
X36199Y73798D01*
Y71798D01*
X35199Y70799D01*
X202203Y103099D02*
X206201D01*
X204202D01*
Y97101D01*
X208201D02*
Y103099D01*
X211200D01*
X212199Y102099D01*
Y100100D01*
X211200Y99100D01*
X208201D01*
X218197Y97101D02*
X214199D01*
X218197Y101100D01*
Y102099D01*
X217198Y103099D01*
X215198D01*
X214199Y102099D01*
X187202Y87999D02*
X191201D01*
X189202D01*
Y82001D01*
X193200D02*
Y87999D01*
X196199D01*
X197199Y86999D01*
Y85000D01*
X196199Y84000D01*
X193200D01*
X199198Y82001D02*
X201198D01*
X200198D01*
Y87999D01*
X199198Y86999D01*
X229202Y81499D02*
Y76501D01*
X230201Y75501D01*
X232201D01*
X233200Y76501D01*
Y81499D01*
X239198Y75501D02*
X235200D01*
X239198Y79500D01*
Y80499D01*
X238199Y81499D01*
X236199D01*
X235200Y80499D01*
X212602Y30999D02*
Y25001D01*
X215601D01*
X216600Y26001D01*
Y29999D01*
X215601Y30999D01*
X212602D01*
X222598Y25001D02*
X218600D01*
X222598Y29000D01*
Y29999D01*
X221599Y30999D01*
X219599D01*
X218600Y29999D01*
X255849Y108901D02*
Y114899D01*
X258848D01*
X259848Y113899D01*
Y111900D01*
X258848Y110900D01*
X255849D01*
X261847Y108901D02*
X263847D01*
X262847D01*
Y114899D01*
X261847Y113899D01*
X39702Y70001D02*
Y75999D01*
X42701D01*
X43700Y74999D01*
Y73000D01*
X42701Y72000D01*
X39702D01*
X41701D02*
X43700Y70001D01*
X45700Y74999D02*
X46699Y75999D01*
X48699D01*
X49698Y74999D01*
Y74000D01*
X48699Y73000D01*
X47699D01*
X48699D01*
X49698Y72000D01*
Y71001D01*
X48699Y70001D01*
X46699D01*
X45700Y71001D01*
X16801Y93899D02*
Y87901D01*
X19800D01*
X20800Y88901D01*
Y92899D01*
X19800Y93899D01*
X16801D01*
X22799Y87901D02*
X24799D01*
X23799D01*
Y93899D01*
X22799Y92899D01*
X252001Y40698D02*
X257999D01*
Y37699D01*
X256999Y36700D01*
X255000D01*
X254000Y37699D01*
Y40698D01*
Y38699D02*
X252001Y36700D01*
Y30702D02*
Y34700D01*
X256000Y30702D01*
X256999D01*
X257999Y31701D01*
Y33701D01*
X256999Y34700D01*
X194400Y79499D02*
X192401D01*
X193400D01*
Y74501D01*
X192401Y73501D01*
X191401D01*
X190401Y74501D01*
X196399Y73501D02*
X198399D01*
X197399D01*
Y79499D01*
X196399Y78499D01*
X190601Y116499D02*
X194600Y110501D01*
Y116499D02*
X190601Y110501D01*
X196599D02*
X198599D01*
X197599D01*
Y116499D01*
X196599Y115499D01*
X95501Y49999D02*
X94502Y50999D01*
X92502D01*
X91502Y49999D01*
Y46001D01*
X92502Y45001D01*
X94502D01*
X95501Y46001D01*
X97500Y45001D02*
X99500D01*
X98500D01*
Y50999D01*
X97500Y49999D01*
X102499D02*
X103499Y50999D01*
X105498D01*
X106498Y49999D01*
Y49000D01*
X105498Y48000D01*
X104498D01*
X105498D01*
X106498Y47000D01*
Y46001D01*
X105498Y45001D01*
X103499D01*
X102499Y46001D01*
X102100Y33899D02*
X101101Y34899D01*
X99101D01*
X98102Y33899D01*
Y29901D01*
X99101Y28901D01*
X101101D01*
X102100Y29901D01*
X108098Y28901D02*
X104100D01*
X108098Y32900D01*
Y33899D01*
X107099Y34899D01*
X105099D01*
X104100Y33899D01*
X35001Y102001D02*
X34001Y101001D01*
Y99002D01*
X35001Y98002D01*
X36000D01*
X37000Y99002D01*
Y101001D01*
X38000Y102001D01*
X38999D01*
X39999Y101001D01*
Y99002D01*
X38999Y98002D01*
X34001Y104000D02*
X39999D01*
X38000Y106000D01*
X39999Y107999D01*
X34001D01*
X39999Y109998D02*
Y111998D01*
Y110998D01*
X34001D01*
X35001Y109998D01*
X145499Y102801D02*
X139501D01*
Y105800D01*
X140501Y106800D01*
X142500D01*
X143500Y105800D01*
Y102801D01*
Y104801D02*
X145499Y106800D01*
Y108799D02*
Y110799D01*
Y109799D01*
X139501D01*
X140501Y108799D01*
X113301Y117099D02*
X109302D01*
Y114100D01*
X111302D01*
X109302D01*
Y111101D01*
X115300Y117099D02*
Y111101D01*
X118299D01*
X119299Y112101D01*
Y113100D01*
X118299Y114100D01*
X115300D01*
X118299D01*
X119299Y115100D01*
Y116099D01*
X118299Y117099D01*
X115300D01*
X121298Y111101D02*
X123298D01*
X122298D01*
Y117099D01*
X121298Y116099D01*
X65914Y68882D02*
X64914Y67883D01*
Y65883D01*
X65914Y64884D01*
X69913D01*
X70912Y65883D01*
Y67883D01*
X69913Y68882D01*
X64914Y74880D02*
X65914Y72881D01*
X67913Y70882D01*
X69913D01*
X70912Y71881D01*
Y73881D01*
X69913Y74880D01*
X68913D01*
X67913Y73881D01*
Y70882D01*
X96441Y115188D02*
X95442Y116188D01*
X93442D01*
X92443Y115188D01*
Y111190D01*
X93442Y110190D01*
X95442D01*
X96441Y111190D01*
X98441D02*
X99440Y110190D01*
X101440D01*
X102439Y111190D01*
Y115188D01*
X101440Y116188D01*
X99440D01*
X98441Y115188D01*
Y114189D01*
X99440Y113189D01*
X102439D01*
X194301Y29199D02*
X193301Y30199D01*
X191302D01*
X190302Y29199D01*
Y25201D01*
X191302Y24201D01*
X193301D01*
X194301Y25201D01*
X196300Y24201D02*
X198300D01*
X197300D01*
Y30199D01*
X196300Y29199D01*
X204298Y24201D02*
Y30199D01*
X201299Y27200D01*
X205298D01*
X54103Y68882D02*
X53103Y67883D01*
Y65883D01*
X54103Y64884D01*
X58102D01*
X59101Y65883D01*
Y67883D01*
X58102Y68882D01*
X53103Y70882D02*
Y74880D01*
X54103D01*
X58102Y70882D01*
X59101D01*
X158501Y116199D02*
X157501Y117199D01*
X155502D01*
X154502Y116199D01*
Y112201D01*
X155502Y111201D01*
X157501D01*
X158501Y112201D01*
X160501Y111201D02*
X162500D01*
X161500D01*
Y117199D01*
X160501Y116199D01*
X165499D02*
X166499Y117199D01*
X168498D01*
X169498Y116199D01*
Y112201D01*
X168498Y111201D01*
X166499D01*
X165499Y112201D01*
Y116199D01*
X95457Y94519D02*
X94457Y95519D01*
X92458D01*
X91458Y94519D01*
Y90520D01*
X92458Y89521D01*
X94457D01*
X95457Y90520D01*
X97456Y94519D02*
X98456Y95519D01*
X100455D01*
X101455Y94519D01*
Y93519D01*
X100455Y92520D01*
X101455Y91520D01*
Y90520D01*
X100455Y89521D01*
X98456D01*
X97456Y90520D01*
Y91520D01*
X98456Y92520D01*
X97456Y93519D01*
Y94519D01*
X98456Y92520D02*
X100455D01*
X183300Y41099D02*
X182300Y42099D01*
X180301D01*
X179301Y41099D01*
Y37101D01*
X180301Y36101D01*
X182300D01*
X183300Y37101D01*
X185299Y36101D02*
X187299D01*
X186299D01*
Y42099D01*
X185299Y41099D01*
X92489Y68882D02*
X91489Y67883D01*
Y65883D01*
X92489Y64884D01*
X96487D01*
X97487Y65883D01*
Y67883D01*
X96487Y68882D01*
X97487Y73881D02*
X91489D01*
X94488Y70882D01*
Y74880D01*
X176401Y115799D02*
X175401Y116799D01*
X173402D01*
X172402Y115799D01*
Y111801D01*
X173402Y110801D01*
X175401D01*
X176401Y111801D01*
X178400Y110801D02*
X180400D01*
X179400D01*
Y116799D01*
X178400Y115799D01*
X183399Y110801D02*
X185398D01*
X184398D01*
Y116799D01*
X183399Y115799D01*
X80678Y67898D02*
X79678Y66898D01*
Y64899D01*
X80678Y63899D01*
X84676D01*
X85676Y64899D01*
Y66898D01*
X84676Y67898D01*
X79678Y73896D02*
Y69897D01*
X82677D01*
X81678Y71897D01*
Y72896D01*
X82677Y73896D01*
X84676D01*
X85676Y72896D01*
Y70897D01*
X84676Y69897D01*
X103316Y68882D02*
X102316Y67883D01*
Y65883D01*
X103316Y64884D01*
X107314D01*
X108314Y65883D01*
Y67883D01*
X107314Y68882D01*
X103316Y70882D02*
X102316Y71881D01*
Y73881D01*
X103316Y74880D01*
X104315D01*
X105315Y73881D01*
Y72881D01*
Y73881D01*
X106315Y74880D01*
X107314D01*
X108314Y73881D01*
Y71881D01*
X107314Y70882D01*
X130801Y115699D02*
X129801Y116699D01*
X127802D01*
X126802Y115699D01*
Y111701D01*
X127802Y110701D01*
X129801D01*
X130801Y111701D01*
X132800Y110701D02*
X134800D01*
X133800D01*
Y116699D01*
X132800Y115699D01*
X141798Y110701D02*
X137799D01*
X141798Y114700D01*
Y115699D01*
X140798Y116699D01*
X138799D01*
X137799Y115699D01*
X150301Y31599D02*
Y26601D01*
X151301Y25601D01*
X153300D01*
X154300Y26601D01*
Y31599D01*
X156299Y25601D02*
X158299D01*
X157299D01*
Y31599D01*
X156299Y30599D01*
M02*
