G04*
G04 #@! TF.GenerationSoftware,Altium Limited,Altium Designer,20.0.11 (256)*
G04*
G04 Layer_Color=32768*
%FSLAX25Y25*%
%MOIN*%
G70*
G01*
G75*
%ADD56C,0.00197*%
%ADD57C,0.00394*%
D56*
X30394Y64900D02*
X30302Y65891D01*
X30029Y66848D01*
X29586Y67739D01*
X28986Y68534D01*
X28250Y69204D01*
X27404Y69728D01*
X26476Y70088D01*
X25498Y70271D01*
X24502D01*
X23524Y70088D01*
X22596Y69728D01*
X21750Y69204D01*
X21014Y68534D01*
X20414Y67739D01*
X19971Y66848D01*
X19698Y65891D01*
X19606Y64900D01*
X19698Y63909D01*
X19971Y62952D01*
X20414Y62061D01*
X21014Y61266D01*
X21750Y60596D01*
X22596Y60072D01*
X23524Y59712D01*
X24502Y59529D01*
X25498D01*
X26476Y59712D01*
X27404Y60072D01*
X28250Y60596D01*
X28986Y61266D01*
X29586Y62061D01*
X30029Y62952D01*
X30302Y63909D01*
X30394Y64900D01*
X45794Y64400D02*
X45702Y65391D01*
X45430Y66348D01*
X44986Y67239D01*
X44386Y68034D01*
X43650Y68704D01*
X42804Y69228D01*
X41876Y69588D01*
X40898Y69771D01*
X39902D01*
X38924Y69588D01*
X37996Y69228D01*
X37150Y68704D01*
X36414Y68034D01*
X35814Y67239D01*
X35370Y66348D01*
X35098Y65391D01*
X35006Y64400D01*
X35098Y63409D01*
X35370Y62452D01*
X35814Y61561D01*
X36414Y60766D01*
X37150Y60096D01*
X37996Y59572D01*
X38924Y59212D01*
X39902Y59029D01*
X40898D01*
X41876Y59212D01*
X42804Y59572D01*
X43650Y60096D01*
X44386Y60766D01*
X44986Y61561D01*
X45430Y62452D01*
X45702Y63409D01*
X45794Y64400D01*
X209794Y108700D02*
X209702Y109691D01*
X209430Y110648D01*
X208986Y111539D01*
X208386Y112334D01*
X207650Y113004D01*
X206804Y113528D01*
X205876Y113888D01*
X204898Y114071D01*
X203902D01*
X202924Y113888D01*
X201996Y113528D01*
X201150Y113004D01*
X200414Y112334D01*
X199814Y111539D01*
X199371Y110648D01*
X199098Y109691D01*
X199006Y108700D01*
X199098Y107709D01*
X199371Y106752D01*
X199814Y105861D01*
X200414Y105066D01*
X201150Y104396D01*
X201996Y103872D01*
X202924Y103512D01*
X203902Y103329D01*
X204898D01*
X205876Y103512D01*
X206804Y103872D01*
X207650Y104396D01*
X208386Y105066D01*
X208986Y105861D01*
X209430Y106752D01*
X209702Y107709D01*
X209794Y108700D01*
X203194Y95100D02*
X203102Y96091D01*
X202830Y97048D01*
X202386Y97939D01*
X201786Y98734D01*
X201050Y99404D01*
X200204Y99928D01*
X199276Y100288D01*
X198298Y100471D01*
X197302D01*
X196324Y100288D01*
X195396Y99928D01*
X194550Y99404D01*
X193814Y98734D01*
X193214Y97939D01*
X192771Y97048D01*
X192498Y96091D01*
X192406Y95100D01*
X192498Y94109D01*
X192771Y93152D01*
X193214Y92261D01*
X193814Y91466D01*
X194550Y90796D01*
X195396Y90272D01*
X196324Y89912D01*
X197302Y89729D01*
X198298D01*
X199276Y89912D01*
X200204Y90272D01*
X201050Y90796D01*
X201786Y91466D01*
X202386Y92261D01*
X202830Y93152D01*
X203102Y94109D01*
X203194Y95100D01*
X235021Y21194D02*
Y33005D01*
X225179Y21194D02*
Y33005D01*
X235021D01*
X225179Y21194D02*
X235021D01*
X212482Y83231D02*
X222718D01*
X212482Y74569D02*
X222718D01*
X212482D02*
Y83231D01*
X222718Y74569D02*
Y83231D01*
X251290Y85315D02*
Y114685D01*
X219006D02*
X251290D01*
X219006Y85315D02*
Y114685D01*
Y85315D02*
X251290D01*
X48734Y77238D02*
Y81962D01*
X40466Y77238D02*
Y81962D01*
Y77238D02*
X48734D01*
X40466Y81962D02*
X48734D01*
X219000Y50802D02*
Y54739D01*
X217032Y52770D02*
X220969D01*
X187917Y35250D02*
X250083D01*
X187917D02*
Y70290D01*
X250083D01*
Y35250D02*
Y70290D01*
X254680Y21866D02*
Y30134D01*
X239720Y21866D02*
Y30134D01*
Y21866D02*
X254680D01*
X239720Y30134D02*
X254680D01*
X179087Y101071D02*
Y109929D01*
X189913Y101071D02*
Y109929D01*
X179087Y101071D02*
X189913D01*
X179087Y109929D02*
X189913D01*
X145166Y101020D02*
X153434D01*
X145166Y115980D02*
X153434D01*
X145166Y101020D02*
Y115980D01*
X153434Y101020D02*
Y115980D01*
X164066Y102607D02*
X172334D01*
X164066Y115993D02*
X172334D01*
X164066Y102607D02*
Y115993D01*
X172334Y102607D02*
Y115993D01*
X152466Y101607D02*
X160734D01*
X152466Y114993D02*
X160734D01*
X152466Y101607D02*
Y114993D01*
X160734Y101607D02*
Y114993D01*
X44453Y89173D02*
X89406D01*
X44453D02*
Y113583D01*
X89406Y89173D02*
Y113583D01*
X44453D02*
X89406D01*
X105260Y39531D02*
Y43468D01*
X112740Y39531D02*
Y43468D01*
X105260D02*
X112740D01*
X105260Y39531D02*
X112740D01*
X110160Y35432D02*
Y39369D01*
X117640Y35432D02*
Y39369D01*
X110160D02*
X117640D01*
X110160Y35432D02*
X117640D01*
X66929Y77953D02*
X70866D01*
X66929Y85433D02*
X70866D01*
X66929Y77953D02*
Y85433D01*
X70866Y77953D02*
Y85433D01*
X80709Y77953D02*
X84646D01*
X80709Y85433D02*
X84646D01*
X80709Y77953D02*
Y85433D01*
X84646Y77953D02*
Y85433D01*
X93504Y77953D02*
X97441D01*
X93504Y85433D02*
X97441D01*
X93504Y77953D02*
Y85433D01*
X97441Y77953D02*
Y85433D01*
X104331Y77953D02*
X108268D01*
X104331Y85433D02*
X108268D01*
X104331Y77953D02*
Y85433D01*
X108268Y77953D02*
Y85433D01*
X55118Y77953D02*
X59055D01*
X55118Y85433D02*
X59055D01*
X55118Y77953D02*
Y85433D01*
X59055Y77953D02*
Y85433D01*
X181460Y30832D02*
Y34769D01*
X188940Y30832D02*
Y34769D01*
X181460D02*
X188940D01*
X181460Y30832D02*
X188940D01*
X113246Y93332D02*
Y109868D01*
X118954D01*
Y93332D02*
Y109868D01*
X113246Y93332D02*
X118954D01*
X99606Y96457D02*
Y100394D01*
X107087Y96457D02*
Y100394D01*
X99606D02*
X107087D01*
X99606Y96457D02*
X107087D01*
X99606Y105315D02*
Y109252D01*
X107087Y105315D02*
Y109252D01*
X99606D02*
X107087D01*
X99606Y105315D02*
X107087D01*
X116232Y33732D02*
Y100268D01*
X182768Y33732D02*
Y100268D01*
X116232Y33732D02*
X182768D01*
X116232Y100268D02*
X182768D01*
X134031Y103260D02*
X137969D01*
X134031Y110740D02*
X137969D01*
X134031Y103260D02*
Y110740D01*
X137969Y103260D02*
Y110740D01*
X188940Y24832D02*
Y28769D01*
X181460Y24832D02*
Y28769D01*
Y24832D02*
X188940D01*
X181460Y28769D02*
X188940D01*
D57*
X25000Y62932D02*
Y66869D01*
X23031Y64900D02*
X26969D01*
X25000Y62932D02*
Y66869D01*
X23031Y64900D02*
X26969D01*
X40400Y62432D02*
Y66369D01*
X38432Y64400D02*
X42369D01*
X40400Y62432D02*
Y66369D01*
X38432Y64400D02*
X42369D01*
X204400Y106731D02*
Y110669D01*
X202432Y108700D02*
X206368D01*
X204400Y106731D02*
Y110669D01*
X202432Y108700D02*
X206368D01*
X197800Y93132D02*
Y97069D01*
X195832Y95100D02*
X199768D01*
X197800Y93132D02*
Y97069D01*
X195832Y95100D02*
X199768D01*
X228132Y27100D02*
X232068D01*
X230100Y25131D02*
Y29068D01*
X217600Y76932D02*
Y80869D01*
X215632Y78900D02*
X219568D01*
X233179Y100000D02*
X237117D01*
X235148Y98032D02*
Y101969D01*
X42730Y79600D02*
X46470D01*
X44600Y77730D02*
Y81470D01*
X245330Y26000D02*
X249070D01*
X247200Y24130D02*
Y27870D01*
X182531Y105500D02*
X186469D01*
X184500Y103532D02*
Y107468D01*
X149300Y106630D02*
Y110370D01*
X147430Y108500D02*
X151170D01*
X168200Y107528D02*
Y111072D01*
X166428Y109300D02*
X169972D01*
X156600Y106528D02*
Y110072D01*
X154828Y108300D02*
X158372D01*
X64961Y101378D02*
X68898D01*
X66929Y99410D02*
Y103347D01*
X107917Y41500D02*
X110083D01*
X109000Y40417D02*
Y42583D01*
X112817Y37400D02*
X114983D01*
X113900Y36317D02*
Y38483D01*
X68898Y80610D02*
Y82776D01*
X67815Y81693D02*
X69980D01*
X82677Y80610D02*
Y82776D01*
X81595Y81693D02*
X83760D01*
X95472Y80610D02*
Y82776D01*
X94390Y81693D02*
X96555D01*
X106299Y80610D02*
Y82776D01*
X105217Y81693D02*
X107382D01*
X57087Y80610D02*
Y82776D01*
X56004Y81693D02*
X58169D01*
X184117Y32800D02*
X186283D01*
X185200Y31717D02*
Y33883D01*
X116100Y99632D02*
Y103568D01*
X114131Y101600D02*
X118069D01*
X102264Y98425D02*
X104429D01*
X103347Y97342D02*
Y99508D01*
X102264Y107283D02*
X104429D01*
X103347Y106201D02*
Y108366D01*
X147531Y67000D02*
X151469D01*
X149500Y65031D02*
Y68968D01*
X136000Y105917D02*
Y108083D01*
X134917Y107000D02*
X137083D01*
X184117Y26800D02*
X186283D01*
X185200Y25717D02*
Y27883D01*
M02*
