G04*
G04 #@! TF.GenerationSoftware,Altium Limited,Altium Designer,20.0.11 (256)*
G04*
G04 Layer_Color=16711935*
%FSLAX25Y25*%
%MOIN*%
G70*
G01*
G75*
%ADD10C,0.00787*%
D10*
X65945Y13780D02*
X65681Y14764D01*
X64961Y15484D01*
X63976Y15748D01*
X62992Y15484D01*
X62272Y14764D01*
X62008Y13780D01*
X266142Y86614D02*
X265155Y86552D01*
X264183Y86367D01*
X263243Y86061D01*
X262348Y85640D01*
X261513Y85110D01*
X260752Y84480D01*
X260075Y83759D01*
X259493Y82959D01*
X259017Y82093D01*
X258653Y81173D01*
X258407Y80216D01*
X258283Y79235D01*
Y78246D01*
X258407Y77265D01*
X258653Y76307D01*
X259017Y75388D01*
X259493Y74521D01*
X260075Y73721D01*
X260752Y73000D01*
X261513Y72370D01*
X262348Y71840D01*
X263243Y71419D01*
X264183Y71114D01*
X265155Y70928D01*
X266142Y70866D01*
X0D02*
X987Y70928D01*
X1958Y71114D01*
X2899Y71419D01*
X3793Y71840D01*
X4628Y72370D01*
X5390Y73000D01*
X6067Y73721D01*
X6648Y74521D01*
X7125Y75388D01*
X7489Y76307D01*
X7735Y77265D01*
X7858Y78246D01*
Y79235D01*
X7735Y80216D01*
X7489Y81173D01*
X7125Y82093D01*
X6648Y82959D01*
X6067Y83759D01*
X5390Y84480D01*
X4628Y85110D01*
X3793Y85640D01*
X2899Y86061D01*
X1958Y86367D01*
X987Y86552D01*
X0Y86614D01*
X65945Y0D02*
X266142D01*
X65945D02*
Y13780D01*
X62008Y0D02*
Y13780D01*
X266142Y86614D02*
Y118110D01*
Y0D02*
Y70866D01*
X0Y86614D02*
Y118110D01*
X266142D01*
X0Y0D02*
X62008D01*
X0D02*
Y70866D01*
M02*
