G04*
G04 #@! TF.GenerationSoftware,Altium Limited,Altium Designer,20.0.11 (256)*
G04*
G04 Layer_Physical_Order=2*
G04 Layer_Color=16711680*
%FSLAX25Y25*%
%MOIN*%
G70*
G01*
G75*
%ADD16C,0.01000*%
%ADD52R,0.01772X0.09055*%
%ADD53C,0.06102*%
%ADD54C,0.05906*%
%ADD55C,0.02000*%
G36*
X253500Y116048D02*
Y78095D01*
X253038Y77904D01*
X251221Y79721D01*
X250890Y79942D01*
X250500Y80020D01*
X227723D01*
X227681Y80081D01*
X227185Y80413D01*
X226600Y80529D01*
X226015Y80413D01*
X225519Y80081D01*
X225187Y79585D01*
X225071Y79000D01*
X225187Y78415D01*
X225519Y77919D01*
X226015Y77587D01*
X226600Y77471D01*
X227185Y77587D01*
X227681Y77919D01*
X227723Y77980D01*
X250078D01*
X253500Y74558D01*
Y35420D01*
X222500D01*
X222110Y35342D01*
X221779Y35121D01*
X218585Y31927D01*
X215690Y29032D01*
X207413D01*
X207022Y28955D01*
X206692Y28734D01*
X204679Y26721D01*
X202625Y24667D01*
X202404Y24337D01*
X202327Y23946D01*
Y16600D01*
X158657D01*
X158505Y17100D01*
X158742Y17258D01*
X159184Y17920D01*
X159240Y18200D01*
X155360D01*
X155416Y17920D01*
X155858Y17258D01*
X156095Y17100D01*
X155943Y16600D01*
X151756D01*
X151618Y16895D01*
X151570Y17100D01*
X151984Y17720D01*
X152040Y18000D01*
X148160D01*
X148216Y17720D01*
X148630Y17100D01*
X148582Y16895D01*
X148444Y16600D01*
X146071D01*
X145804Y17100D01*
X146084Y17520D01*
X146140Y17800D01*
X142260D01*
X142316Y17520D01*
X142596Y17100D01*
X142329Y16600D01*
X138595D01*
X138404Y17062D01*
X147765Y26423D01*
X148085Y26487D01*
X148581Y26819D01*
X148913Y27315D01*
X149029Y27900D01*
X148913Y28485D01*
X148581Y28981D01*
X148085Y29313D01*
X147500Y29429D01*
X146915Y29313D01*
X146419Y28981D01*
X146087Y28485D01*
X145971Y27900D01*
X146035Y27577D01*
X135878Y17420D01*
X128342D01*
X127952Y17342D01*
X127621Y17121D01*
X127100Y16600D01*
X115295D01*
X115104Y17062D01*
X115836Y17795D01*
X116000Y17762D01*
X116585Y17878D01*
X117081Y18210D01*
X117413Y18706D01*
X117529Y19291D01*
X117413Y19877D01*
X117081Y20373D01*
X116585Y20704D01*
X116000Y20821D01*
X115415Y20704D01*
X114919Y20373D01*
X114587Y19877D01*
X114476Y19318D01*
X113468Y18309D01*
X112911Y18460D01*
X112873Y18605D01*
X113013Y18815D01*
X113129Y19400D01*
X113013Y19985D01*
X112681Y20481D01*
X112185Y20813D01*
X111600Y20929D01*
X111015Y20813D01*
X110519Y20481D01*
X110187Y19985D01*
X110071Y19400D01*
X110187Y18815D01*
X110519Y18319D01*
X110580Y18277D01*
Y16600D01*
X107520D01*
Y18227D01*
X107581Y18269D01*
X107913Y18765D01*
X108029Y19350D01*
X107913Y19935D01*
X107581Y20431D01*
X107085Y20763D01*
X106500Y20879D01*
X105915Y20763D01*
X105419Y20431D01*
X105087Y19935D01*
X104971Y19350D01*
X105087Y18765D01*
X105419Y18269D01*
X105480Y18227D01*
Y16600D01*
X100429D01*
Y17287D01*
X107221Y24079D01*
X107442Y24410D01*
X107520Y24800D01*
Y30780D01*
X108077D01*
X108119Y30719D01*
X108615Y30387D01*
X109200Y30271D01*
X109785Y30387D01*
X110281Y30719D01*
X110613Y31215D01*
X110729Y31800D01*
X110613Y32385D01*
X110349Y32780D01*
X110469Y33141D01*
X110570Y33280D01*
X118777D01*
X118819Y33219D01*
X119315Y32887D01*
X119900Y32771D01*
X120485Y32887D01*
X120981Y33219D01*
X121313Y33715D01*
X121429Y34300D01*
X121313Y34885D01*
X120981Y35381D01*
X120547Y35672D01*
X120537Y35698D01*
X120507Y35969D01*
X120528Y36214D01*
X121042Y36558D01*
X121484Y37220D01*
X121540Y37500D01*
X117660D01*
X117716Y37220D01*
X118158Y36558D01*
X118820Y36116D01*
X118826Y36115D01*
X118956Y35612D01*
X118680Y35320D01*
X104796D01*
X104746Y35820D01*
X105085Y35887D01*
X105581Y36219D01*
X105913Y36715D01*
X106029Y37300D01*
X105913Y37885D01*
X105581Y38381D01*
X105085Y38713D01*
X104500Y38829D01*
X103915Y38713D01*
X103419Y38381D01*
X103344Y38270D01*
X99780D01*
X99544Y38711D01*
X99684Y38920D01*
X99740Y39200D01*
X95860D01*
X95916Y38920D01*
X96358Y38258D01*
X97020Y37816D01*
X97066Y37807D01*
X97231Y37310D01*
X96989Y37020D01*
X76315D01*
X76123Y37481D01*
X93622Y54980D01*
X185678D01*
X186179Y54479D01*
X186510Y54258D01*
X186900Y54180D01*
X221678D01*
X222485Y53373D01*
X222471Y53300D01*
X222587Y52715D01*
X222919Y52219D01*
X223415Y51887D01*
X224000Y51771D01*
X224585Y51887D01*
X225081Y52219D01*
X225413Y52715D01*
X225529Y53300D01*
X225413Y53885D01*
X225081Y54381D01*
X224585Y54713D01*
X224000Y54829D01*
X223927Y54815D01*
X222821Y55921D01*
X222490Y56142D01*
X222100Y56220D01*
X187322D01*
X186821Y56721D01*
X186490Y56942D01*
X186100Y57020D01*
X93200D01*
X92810Y56942D01*
X92479Y56721D01*
X75028Y39270D01*
X74172D01*
X73715Y39727D01*
X73729Y39800D01*
X73613Y40385D01*
X73281Y40881D01*
X72785Y41213D01*
X72200Y41329D01*
X71615Y41213D01*
X71119Y40881D01*
X70787Y40385D01*
X70671Y39800D01*
X70787Y39215D01*
X71119Y38719D01*
X71615Y38387D01*
X72200Y38271D01*
X72273Y38285D01*
X72804Y37754D01*
X72825Y37500D01*
X72380Y37020D01*
X67900D01*
X67510Y36942D01*
X67179Y36721D01*
X53807Y23348D01*
X53586Y23018D01*
X53508Y22628D01*
Y16600D01*
X13100D01*
X12600Y17100D01*
Y18794D01*
X13100Y18946D01*
X13319Y18619D01*
X13815Y18287D01*
X14400Y18171D01*
X14985Y18287D01*
X15481Y18619D01*
X15813Y19115D01*
X15929Y19700D01*
X15813Y20285D01*
X15538Y20696D01*
X17222Y22380D01*
X45200D01*
X45590Y22458D01*
X45921Y22679D01*
X52922Y29680D01*
X54300D01*
X54690Y29758D01*
X55021Y29979D01*
X69172Y44130D01*
X76850D01*
X77240Y44208D01*
X77571Y44429D01*
X89621Y56479D01*
X89842Y56810D01*
X89920Y57200D01*
Y59080D01*
X184700D01*
X185090Y59158D01*
X185421Y59379D01*
X192421Y66379D01*
X192642Y66710D01*
X192720Y67100D01*
Y72400D01*
X192642Y72790D01*
X192421Y73121D01*
X192115Y73427D01*
X192129Y73500D01*
X192013Y74085D01*
X191681Y74581D01*
X191185Y74913D01*
X190600Y75029D01*
X190015Y74913D01*
X189920Y74849D01*
X189420Y75117D01*
Y75493D01*
X189342Y75883D01*
X189121Y76214D01*
X188305Y77030D01*
X188025Y77217D01*
X187781Y77581D01*
X187285Y77913D01*
X186700Y78029D01*
X186115Y77913D01*
X185619Y77581D01*
X185287Y77085D01*
X185171Y76500D01*
X185287Y75915D01*
X185619Y75419D01*
X186115Y75087D01*
X186700Y74971D01*
X186880Y75007D01*
X187380Y74596D01*
Y66722D01*
X183778Y63120D01*
X86700D01*
X86310Y63042D01*
X85979Y62821D01*
X85479Y62321D01*
X85258Y61990D01*
X85180Y61600D01*
Y57822D01*
X76378Y49020D01*
X69200D01*
X68810Y48942D01*
X68479Y48721D01*
X53878Y34120D01*
X52400D01*
X52010Y34042D01*
X51679Y33821D01*
X44078Y26220D01*
X16923D01*
X16881Y26281D01*
X16385Y26613D01*
X15800Y26729D01*
X15215Y26613D01*
X14719Y26281D01*
X14387Y25785D01*
X14271Y25200D01*
X14387Y24615D01*
X14719Y24119D01*
X15109Y23858D01*
X15264Y23306D01*
X13797Y21839D01*
X13576Y21508D01*
X13498Y21118D01*
Y20901D01*
X13319Y20781D01*
X13100Y20454D01*
X12600Y20606D01*
Y116100D01*
X253146Y116401D01*
X253500Y116048D01*
D02*
G37*
G36*
X106889Y32780D02*
X106696Y32742D01*
X106365Y32521D01*
X105779Y31935D01*
X105558Y31604D01*
X105480Y31214D01*
Y25222D01*
X98689Y18430D01*
X98567Y18248D01*
X98067Y18400D01*
Y19825D01*
X98721Y20479D01*
X98942Y20810D01*
X99020Y21200D01*
Y28477D01*
X99081Y28519D01*
X99413Y29015D01*
X99529Y29600D01*
X99413Y30185D01*
X99283Y30380D01*
X99550Y30880D01*
X100077D01*
X100119Y30819D01*
X100615Y30487D01*
X101200Y30371D01*
X101785Y30487D01*
X102281Y30819D01*
X102613Y31315D01*
X102729Y31900D01*
X102613Y32485D01*
X102416Y32780D01*
X102665Y33280D01*
X106840D01*
X106889Y32780D01*
D02*
G37*
G36*
X253500Y21456D02*
X253205Y21318D01*
X253000Y21270D01*
X252380Y21684D01*
X252100Y21740D01*
Y19800D01*
Y17860D01*
X252380Y17916D01*
X253000Y18330D01*
X253205Y18282D01*
X253500Y18144D01*
Y16600D01*
X222446D01*
X222397Y17100D01*
X222980Y17216D01*
X223642Y17658D01*
X224084Y18320D01*
X224140Y18600D01*
X222200D01*
Y19100D01*
X221700D01*
Y21040D01*
X221420Y20984D01*
X221106Y20774D01*
X221075Y20776D01*
X220584Y21027D01*
X220513Y21385D01*
X220181Y21881D01*
X219685Y22213D01*
X219100Y22329D01*
X218515Y22213D01*
X218019Y21881D01*
X217977Y21820D01*
X214723D01*
X214681Y21881D01*
X214185Y22213D01*
X213600Y22329D01*
X213015Y22213D01*
X212519Y21881D01*
X212187Y21385D01*
X212071Y20800D01*
X212187Y20215D01*
X212270Y20091D01*
X212070Y19489D01*
X211907Y19431D01*
X211785Y19513D01*
X211200Y19629D01*
X210615Y19513D01*
X210119Y19181D01*
X209787Y18685D01*
X209671Y18100D01*
X209787Y17515D01*
X210064Y17100D01*
X209972Y16794D01*
X209845Y16600D01*
X209090D01*
Y24848D01*
X211235Y26993D01*
X216113D01*
X216503Y27071D01*
X216833Y27292D01*
X219729Y30187D01*
X222473D01*
X222519Y30119D01*
X223015Y29787D01*
X223600Y29671D01*
X224185Y29787D01*
X224681Y30119D01*
X225013Y30615D01*
X225129Y31200D01*
X225013Y31785D01*
X224681Y32281D01*
X224185Y32613D01*
X223600Y32729D01*
X223015Y32613D01*
X222848Y32502D01*
X222773Y32524D01*
X222629Y33087D01*
X222922Y33380D01*
X253500D01*
Y21456D01*
D02*
G37*
G36*
X96265Y29664D02*
X96484Y29535D01*
X96587Y29015D01*
X96919Y28519D01*
X96980Y28477D01*
Y21622D01*
X96326Y20968D01*
X96105Y20637D01*
X96028Y20247D01*
Y16600D01*
X93520D01*
Y27278D01*
X95990Y29748D01*
X96265Y29664D01*
D02*
G37*
G36*
X91162Y34519D02*
X89279Y32635D01*
X89058Y32304D01*
X88980Y31914D01*
Y16600D01*
X80195D01*
X80004Y17062D01*
X80221Y17279D01*
X80442Y17610D01*
X80520Y18000D01*
Y19377D01*
X80581Y19419D01*
X80913Y19915D01*
X81029Y20500D01*
X80913Y21085D01*
X80581Y21581D01*
X80085Y21913D01*
X79500Y22029D01*
X78915Y21913D01*
X78419Y21581D01*
X78087Y21085D01*
X77971Y20500D01*
X78087Y19915D01*
X78419Y19419D01*
X78480Y19377D01*
Y18422D01*
X77429Y17371D01*
X77208Y17040D01*
X77130Y16650D01*
Y16600D01*
X72083D01*
Y18689D01*
X72583Y18875D01*
X73120Y18516D01*
X73400Y18460D01*
Y20400D01*
Y22340D01*
X73120Y22284D01*
X72583Y21925D01*
X72083Y22111D01*
Y32641D01*
X74422Y34980D01*
X90971D01*
X91162Y34519D01*
D02*
G37*
G36*
X71077D02*
X70342Y33784D01*
X70121Y33453D01*
X70043Y33063D01*
Y16600D01*
X55547D01*
Y22205D01*
X68322Y34980D01*
X70885D01*
X71077Y34519D01*
D02*
G37*
%LPC*%
G36*
X131900Y110440D02*
Y109000D01*
X133340D01*
X133284Y109280D01*
X132842Y109942D01*
X132180Y110384D01*
X131900Y110440D01*
D02*
G37*
G36*
X130900D02*
X130620Y110384D01*
X129958Y109942D01*
X129516Y109280D01*
X129460Y109000D01*
X130900D01*
Y110440D01*
D02*
G37*
G36*
X133340Y108000D02*
X131900D01*
Y106560D01*
X132180Y106616D01*
X132842Y107058D01*
X133284Y107720D01*
X133340Y108000D01*
D02*
G37*
G36*
X130900D02*
X129460D01*
X129516Y107720D01*
X129958Y107058D01*
X130620Y106616D01*
X130900Y106560D01*
Y108000D01*
D02*
G37*
G36*
X204400Y112282D02*
X203473Y112160D01*
X202609Y111802D01*
X201867Y111233D01*
X201298Y110491D01*
X200940Y109627D01*
X200818Y108700D01*
X200940Y107773D01*
X201298Y106909D01*
X201867Y106167D01*
X202609Y105598D01*
X203473Y105240D01*
X204400Y105118D01*
X205327Y105240D01*
X206191Y105598D01*
X206933Y106167D01*
X207502Y106909D01*
X207860Y107773D01*
X207982Y108700D01*
X207860Y109627D01*
X207502Y110491D01*
X206933Y111233D01*
X206191Y111802D01*
X205327Y112160D01*
X204400Y112282D01*
D02*
G37*
G36*
X194000Y104840D02*
Y103400D01*
X195440D01*
X195384Y103680D01*
X194942Y104342D01*
X194280Y104784D01*
X194000Y104840D01*
D02*
G37*
G36*
X193000D02*
X192720Y104784D01*
X192058Y104342D01*
X191616Y103680D01*
X191560Y103400D01*
X193000D01*
Y104840D01*
D02*
G37*
G36*
X160800Y104140D02*
Y102700D01*
X162240D01*
X162184Y102980D01*
X161742Y103642D01*
X161080Y104084D01*
X160800Y104140D01*
D02*
G37*
G36*
X159800D02*
X159520Y104084D01*
X158858Y103642D01*
X158416Y102980D01*
X158360Y102700D01*
X159800D01*
Y104140D01*
D02*
G37*
G36*
X195440Y102400D02*
X194000D01*
Y100960D01*
X194280Y101016D01*
X194942Y101458D01*
X195384Y102120D01*
X195440Y102400D01*
D02*
G37*
G36*
X193000D02*
X191560D01*
X191616Y102120D01*
X192058Y101458D01*
X192720Y101016D01*
X193000Y100960D01*
Y102400D01*
D02*
G37*
G36*
X162240Y101700D02*
X160800D01*
Y100260D01*
X161080Y100316D01*
X161742Y100758D01*
X162184Y101420D01*
X162240Y101700D01*
D02*
G37*
G36*
X159800D02*
X158360D01*
X158416Y101420D01*
X158858Y100758D01*
X159520Y100316D01*
X159800Y100260D01*
Y101700D01*
D02*
G37*
G36*
X109100Y93840D02*
Y92400D01*
X110540D01*
X110484Y92680D01*
X110042Y93342D01*
X109380Y93784D01*
X109100Y93840D01*
D02*
G37*
G36*
X108100D02*
X107820Y93784D01*
X107158Y93342D01*
X106716Y92680D01*
X106660Y92400D01*
X108100D01*
Y93840D01*
D02*
G37*
G36*
X197800Y98682D02*
X196873Y98560D01*
X196009Y98202D01*
X195267Y97633D01*
X194698Y96891D01*
X194340Y96027D01*
X194218Y95100D01*
X194340Y94173D01*
X194698Y93309D01*
X195267Y92567D01*
X196009Y91998D01*
X196873Y91640D01*
X197800Y91518D01*
X198727Y91640D01*
X199591Y91998D01*
X200333Y92567D01*
X200902Y93309D01*
X201260Y94173D01*
X201382Y95100D01*
X201260Y96027D01*
X200902Y96891D01*
X200333Y97633D01*
X199591Y98202D01*
X198727Y98560D01*
X197800Y98682D01*
D02*
G37*
G36*
X216370Y94129D02*
X215785Y94013D01*
X215289Y93681D01*
X215248Y93620D01*
X210800D01*
X210410Y93542D01*
X210079Y93321D01*
X199478Y82720D01*
X114700D01*
X114310Y82642D01*
X113979Y82421D01*
X108979Y77421D01*
X108758Y77090D01*
X108680Y76700D01*
Y69900D01*
X108758Y69510D01*
X108979Y69179D01*
X109879Y68279D01*
X110210Y68058D01*
X110600Y67980D01*
X111077D01*
X111119Y67919D01*
X111615Y67587D01*
X112200Y67471D01*
X112785Y67587D01*
X113281Y67919D01*
X113613Y68415D01*
X113729Y69000D01*
X113613Y69585D01*
X113281Y70081D01*
X112785Y70413D01*
X112200Y70529D01*
X111615Y70413D01*
X111119Y70081D01*
X110720Y70370D01*
Y76278D01*
X115122Y80680D01*
X199900D01*
X200290Y80758D01*
X200621Y80979D01*
X211222Y91580D01*
X215248D01*
X215289Y91519D01*
X215785Y91187D01*
X216370Y91071D01*
X216956Y91187D01*
X217452Y91519D01*
X217783Y92015D01*
X217900Y92600D01*
X217783Y93185D01*
X217452Y93681D01*
X216956Y94013D01*
X216370Y94129D01*
D02*
G37*
G36*
X110540Y91400D02*
X109100D01*
Y89960D01*
X109380Y90016D01*
X110042Y90458D01*
X110484Y91120D01*
X110540Y91400D01*
D02*
G37*
G36*
X108100D02*
X106660D01*
X106716Y91120D01*
X107158Y90458D01*
X107820Y90016D01*
X108100Y89960D01*
Y91400D01*
D02*
G37*
G36*
X216400Y88440D02*
Y87000D01*
X217840D01*
X217784Y87280D01*
X217342Y87942D01*
X216680Y88384D01*
X216400Y88440D01*
D02*
G37*
G36*
X215400D02*
X215120Y88384D01*
X214458Y87942D01*
X214016Y87280D01*
X213960Y87000D01*
X215400D01*
Y88440D01*
D02*
G37*
G36*
X217840Y86000D02*
X216400D01*
Y84560D01*
X216680Y84616D01*
X217342Y85058D01*
X217784Y85720D01*
X217840Y86000D01*
D02*
G37*
G36*
X215400D02*
X213960D01*
X214016Y85720D01*
X214458Y85058D01*
X215120Y84616D01*
X215400Y84560D01*
Y86000D01*
D02*
G37*
G36*
X207600Y82929D02*
X207015Y82813D01*
X206519Y82481D01*
X206187Y81985D01*
X206071Y81400D01*
X206085Y81327D01*
X198179Y73421D01*
X197958Y73090D01*
X197880Y72700D01*
Y65623D01*
X197819Y65581D01*
X197487Y65085D01*
X197371Y64500D01*
X197487Y63915D01*
X197819Y63419D01*
X198315Y63087D01*
X198900Y62971D01*
X199485Y63087D01*
X199981Y63419D01*
X200313Y63915D01*
X200429Y64500D01*
X200313Y65085D01*
X199981Y65581D01*
X199920Y65623D01*
Y72278D01*
X207527Y79885D01*
X207600Y79871D01*
X208185Y79987D01*
X208370Y80111D01*
X208731Y79750D01*
X208487Y79385D01*
X208371Y78800D01*
X208385Y78727D01*
X206979Y77321D01*
X206758Y76990D01*
X206680Y76600D01*
Y65386D01*
X206758Y64996D01*
X206979Y64665D01*
X207116Y64528D01*
X207071Y64300D01*
X207187Y63715D01*
X207519Y63219D01*
X208015Y62887D01*
X208600Y62771D01*
X209185Y62887D01*
X209681Y63219D01*
X210013Y63715D01*
X210129Y64300D01*
X210013Y64885D01*
X209681Y65381D01*
X209185Y65713D01*
X208723Y65805D01*
X208720Y65808D01*
Y72665D01*
X209220Y72816D01*
X209419Y72519D01*
X209915Y72187D01*
X210500Y72071D01*
X210728Y72116D01*
X210865Y71979D01*
X211196Y71758D01*
X211586Y71680D01*
X217478D01*
X217480Y71678D01*
Y65323D01*
X217419Y65281D01*
X217087Y64785D01*
X216971Y64200D01*
X217087Y63615D01*
X217419Y63119D01*
X217915Y62787D01*
X218500Y62671D01*
X219085Y62787D01*
X219581Y63119D01*
X219913Y63615D01*
X220029Y64200D01*
X219913Y64785D01*
X219581Y65281D01*
X219520Y65323D01*
Y72100D01*
X219442Y72490D01*
X219221Y72821D01*
X218621Y73421D01*
X218290Y73642D01*
X217900Y73720D01*
X212008D01*
X212005Y73723D01*
X211913Y74185D01*
X211581Y74681D01*
X211085Y75013D01*
X210500Y75129D01*
X209915Y75013D01*
X209419Y74681D01*
X209220Y74384D01*
X208720Y74535D01*
Y76178D01*
X209827Y77285D01*
X209900Y77271D01*
X210485Y77387D01*
X210981Y77719D01*
X211313Y78215D01*
X211429Y78800D01*
X211313Y79385D01*
X210981Y79881D01*
X210485Y80213D01*
X209900Y80329D01*
X209315Y80213D01*
X209130Y80089D01*
X208769Y80450D01*
X209013Y80815D01*
X209129Y81400D01*
X209013Y81985D01*
X208681Y82481D01*
X208185Y82813D01*
X207600Y82929D01*
D02*
G37*
G36*
X88800Y78529D02*
X88215Y78413D01*
X87719Y78081D01*
X87677Y78020D01*
X82800D01*
X82410Y77942D01*
X82079Y77721D01*
X80679Y76321D01*
X80458Y75990D01*
X80380Y75600D01*
Y58023D01*
X80319Y57981D01*
X79987Y57485D01*
X79871Y56900D01*
X79987Y56315D01*
X80319Y55819D01*
X80815Y55487D01*
X81400Y55371D01*
X81985Y55487D01*
X82481Y55819D01*
X82813Y56315D01*
X82929Y56900D01*
X82813Y57485D01*
X82481Y57981D01*
X82420Y58023D01*
Y75178D01*
X83222Y75980D01*
X87677D01*
X87719Y75919D01*
X88215Y75587D01*
X88800Y75471D01*
X89385Y75587D01*
X89881Y75919D01*
X90213Y76415D01*
X90329Y77000D01*
X90213Y77585D01*
X89881Y78081D01*
X89385Y78413D01*
X88800Y78529D01*
D02*
G37*
G36*
X225900Y76029D02*
X225315Y75913D01*
X224819Y75581D01*
X224487Y75085D01*
X224371Y74500D01*
X224487Y73915D01*
X224819Y73419D01*
X225315Y73087D01*
X225900Y72971D01*
X225973Y72985D01*
X226780Y72178D01*
Y65386D01*
X226858Y64996D01*
X227079Y64665D01*
X227299Y64445D01*
X227271Y64300D01*
X227387Y63715D01*
X227719Y63219D01*
X228215Y62887D01*
X228800Y62771D01*
X229385Y62887D01*
X229881Y63219D01*
X230213Y63715D01*
X230329Y64300D01*
X230213Y64885D01*
X229881Y65381D01*
X229385Y65713D01*
X228820Y65825D01*
Y72600D01*
X228742Y72990D01*
X228521Y73321D01*
X227415Y74427D01*
X227429Y74500D01*
X227313Y75085D01*
X226981Y75581D01*
X226485Y75913D01*
X225900Y76029D01*
D02*
G37*
G36*
X25000Y68482D02*
X24073Y68360D01*
X23209Y68002D01*
X22467Y67433D01*
X21898Y66691D01*
X21540Y65827D01*
X21418Y64900D01*
X21540Y63973D01*
X21898Y63109D01*
X22467Y62367D01*
X23209Y61798D01*
X24073Y61440D01*
X25000Y61318D01*
X25927Y61440D01*
X26791Y61798D01*
X27533Y62367D01*
X28102Y63109D01*
X28460Y63973D01*
X28582Y64900D01*
X28460Y65827D01*
X28102Y66691D01*
X27533Y67433D01*
X26791Y68002D01*
X25927Y68360D01*
X25000Y68482D01*
D02*
G37*
G36*
X40400Y67982D02*
X39473Y67860D01*
X38609Y67502D01*
X37867Y66933D01*
X37298Y66191D01*
X36940Y65327D01*
X36818Y64400D01*
X36940Y63473D01*
X37298Y62609D01*
X37867Y61867D01*
X38609Y61298D01*
X39473Y60940D01*
X40400Y60818D01*
X41327Y60940D01*
X42191Y61298D01*
X42933Y61867D01*
X43502Y62609D01*
X43860Y63473D01*
X43982Y64400D01*
X43860Y65327D01*
X43502Y66191D01*
X42933Y66933D01*
X42191Y67502D01*
X41327Y67860D01*
X40400Y67982D01*
D02*
G37*
G36*
X218500Y53229D02*
X217915Y53113D01*
X217419Y52781D01*
X217087Y52285D01*
X217073Y52215D01*
X216778Y51920D01*
X193289D01*
X192788Y52421D01*
X192457Y52642D01*
X192067Y52720D01*
X186623D01*
X186581Y52781D01*
X186085Y53113D01*
X185500Y53229D01*
X184915Y53113D01*
X184419Y52781D01*
X184087Y52285D01*
X183971Y51700D01*
X184087Y51115D01*
X184419Y50619D01*
X184915Y50287D01*
X185500Y50171D01*
X186085Y50287D01*
X186581Y50619D01*
X186623Y50680D01*
X191644D01*
X192146Y50179D01*
X192476Y49958D01*
X192867Y49880D01*
X217200D01*
X217590Y49958D01*
X217921Y50179D01*
X218010Y50268D01*
X218500Y50171D01*
X219085Y50287D01*
X219581Y50619D01*
X219913Y51115D01*
X220029Y51700D01*
X219913Y52285D01*
X219581Y52781D01*
X219085Y53113D01*
X218500Y53229D01*
D02*
G37*
G36*
X100500Y54029D02*
X99915Y53913D01*
X99419Y53581D01*
X99377Y53520D01*
X96000D01*
X95610Y53442D01*
X95279Y53221D01*
X92779Y50721D01*
X92558Y50390D01*
X92480Y50000D01*
Y43623D01*
X92419Y43581D01*
X92087Y43085D01*
X91971Y42500D01*
X92087Y41915D01*
X92419Y41419D01*
X92915Y41087D01*
X93500Y40971D01*
X94085Y41087D01*
X94581Y41419D01*
X94913Y41915D01*
X95029Y42500D01*
X94913Y43085D01*
X94581Y43581D01*
X94520Y43623D01*
Y49578D01*
X96422Y51480D01*
X99377D01*
X99419Y51419D01*
X99915Y51087D01*
X100500Y50971D01*
X101085Y51087D01*
X101581Y51419D01*
X101913Y51915D01*
X102029Y52500D01*
X101913Y53085D01*
X101581Y53581D01*
X101085Y53913D01*
X100500Y54029D01*
D02*
G37*
G36*
X110000Y52029D02*
X109415Y51913D01*
X108919Y51581D01*
X108877Y51520D01*
X103000D01*
X102610Y51442D01*
X102279Y51221D01*
X100279Y49221D01*
X100058Y48890D01*
X99980Y48500D01*
Y43123D01*
X99919Y43081D01*
X99587Y42585D01*
X99471Y42000D01*
X99575Y41475D01*
X99574Y41474D01*
X99330Y41284D01*
X99159Y41197D01*
X98580Y41584D01*
X98300Y41640D01*
Y40200D01*
X99740D01*
X99685Y40473D01*
X99703Y40498D01*
X100052Y40829D01*
X100415Y40587D01*
X101000Y40471D01*
X101585Y40587D01*
X102081Y40919D01*
X102413Y41415D01*
X102529Y42000D01*
X102413Y42585D01*
X102081Y43081D01*
X102020Y43123D01*
Y48078D01*
X103422Y49480D01*
X108877D01*
X108919Y49419D01*
X109415Y49087D01*
X110000Y48971D01*
X110585Y49087D01*
X111081Y49419D01*
X111413Y49915D01*
X111529Y50500D01*
X111413Y51085D01*
X111081Y51581D01*
X110585Y51913D01*
X110000Y52029D01*
D02*
G37*
G36*
X34700Y55229D02*
X34115Y55113D01*
X33619Y54781D01*
X33287Y54285D01*
X33171Y53700D01*
X33287Y53115D01*
X33619Y52619D01*
X34115Y52287D01*
X34700Y52171D01*
X34856Y52202D01*
X37679Y49379D01*
X38010Y49158D01*
X38400Y49080D01*
X38577D01*
X38619Y49019D01*
X39115Y48687D01*
X39700Y48571D01*
X40285Y48687D01*
X40781Y49019D01*
X41113Y49515D01*
X41229Y50100D01*
X41113Y50685D01*
X40781Y51181D01*
X40285Y51513D01*
X39700Y51629D01*
X39115Y51513D01*
X38704Y51238D01*
X36226Y53716D01*
X36113Y54285D01*
X35781Y54781D01*
X35285Y55113D01*
X34700Y55229D01*
D02*
G37*
G36*
X97300Y41640D02*
X97020Y41584D01*
X96358Y41142D01*
X95916Y40480D01*
X95860Y40200D01*
X97300D01*
Y41640D01*
D02*
G37*
G36*
X239100Y73729D02*
X238515Y73613D01*
X238019Y73281D01*
X237687Y72785D01*
X237571Y72200D01*
X237687Y71615D01*
X237885Y71318D01*
X237880Y71293D01*
Y42123D01*
X237819Y42081D01*
X237487Y41585D01*
X237371Y41000D01*
X237487Y40415D01*
X237819Y39919D01*
X238315Y39587D01*
X238900Y39471D01*
X239485Y39587D01*
X239981Y39919D01*
X240313Y40415D01*
X240429Y41000D01*
X240313Y41585D01*
X239981Y42081D01*
X239920Y42123D01*
Y70944D01*
X240181Y71119D01*
X240513Y71615D01*
X240629Y72200D01*
X240513Y72785D01*
X240181Y73281D01*
X239685Y73613D01*
X239100Y73729D01*
D02*
G37*
G36*
X120100Y39940D02*
Y38500D01*
X121540D01*
X121484Y38780D01*
X121042Y39442D01*
X120380Y39884D01*
X120100Y39940D01*
D02*
G37*
G36*
X119100D02*
X118820Y39884D01*
X118158Y39442D01*
X117716Y38780D01*
X117660Y38500D01*
X119100D01*
Y39940D01*
D02*
G37*
G36*
X191500Y34940D02*
Y33500D01*
X192940D01*
X192884Y33780D01*
X192442Y34442D01*
X191780Y34884D01*
X191500Y34940D01*
D02*
G37*
G36*
X190500D02*
X190220Y34884D01*
X189558Y34442D01*
X189116Y33780D01*
X189060Y33500D01*
X190500D01*
Y34940D01*
D02*
G37*
G36*
X214800Y33640D02*
Y32200D01*
X216240D01*
X216184Y32480D01*
X215742Y33142D01*
X215080Y33584D01*
X214800Y33640D01*
D02*
G37*
G36*
X213800D02*
X213520Y33584D01*
X212858Y33142D01*
X212416Y32480D01*
X212360Y32200D01*
X213800D01*
Y33640D01*
D02*
G37*
G36*
X192940Y32500D02*
X191500D01*
Y31060D01*
X191780Y31116D01*
X192442Y31558D01*
X192884Y32220D01*
X192940Y32500D01*
D02*
G37*
G36*
X190500D02*
X189060D01*
X189116Y32220D01*
X189558Y31558D01*
X190220Y31116D01*
X190500Y31060D01*
Y32500D01*
D02*
G37*
G36*
X216240Y31200D02*
X214800D01*
Y29760D01*
X215080Y29816D01*
X215742Y30258D01*
X216184Y30920D01*
X216240Y31200D01*
D02*
G37*
G36*
X213800D02*
X212360D01*
X212416Y30920D01*
X212858Y30258D01*
X213520Y29816D01*
X213800Y29760D01*
Y31200D01*
D02*
G37*
G36*
X48100Y21894D02*
Y20454D01*
X49540D01*
X49484Y20735D01*
X49042Y21396D01*
X48380Y21838D01*
X48100Y21894D01*
D02*
G37*
G36*
X47100D02*
X46820Y21838D01*
X46158Y21396D01*
X45716Y20735D01*
X45660Y20454D01*
X47100D01*
Y21894D01*
D02*
G37*
G36*
X37500Y21540D02*
Y20100D01*
X38940D01*
X38884Y20380D01*
X38442Y21042D01*
X37780Y21484D01*
X37500Y21540D01*
D02*
G37*
G36*
X36500D02*
X36220Y21484D01*
X35558Y21042D01*
X35116Y20380D01*
X35060Y20100D01*
X36500D01*
Y21540D01*
D02*
G37*
G36*
X30600Y21340D02*
Y19900D01*
X32040D01*
X31984Y20180D01*
X31542Y20842D01*
X30880Y21284D01*
X30600Y21340D01*
D02*
G37*
G36*
X29600D02*
X29320Y21284D01*
X28658Y20842D01*
X28216Y20180D01*
X28160Y19900D01*
X29600D01*
Y21340D01*
D02*
G37*
G36*
X23400Y21140D02*
Y19700D01*
X24840D01*
X24784Y19980D01*
X24342Y20642D01*
X23680Y21084D01*
X23400Y21140D01*
D02*
G37*
G36*
X22400D02*
X22120Y21084D01*
X21458Y20642D01*
X21016Y19980D01*
X20960Y19700D01*
X22400D01*
Y21140D01*
D02*
G37*
G36*
X157800Y20640D02*
Y19200D01*
X159240D01*
X159184Y19480D01*
X158742Y20142D01*
X158080Y20584D01*
X157800Y20640D01*
D02*
G37*
G36*
X156800D02*
X156520Y20584D01*
X155858Y20142D01*
X155416Y19480D01*
X155360Y19200D01*
X156800D01*
Y20640D01*
D02*
G37*
G36*
X150600Y20440D02*
Y19000D01*
X152040D01*
X151984Y19280D01*
X151542Y19942D01*
X150880Y20384D01*
X150600Y20440D01*
D02*
G37*
G36*
X149600D02*
X149320Y20384D01*
X148658Y19942D01*
X148216Y19280D01*
X148160Y19000D01*
X149600D01*
Y20440D01*
D02*
G37*
G36*
X144700Y20240D02*
Y18800D01*
X146140D01*
X146084Y19080D01*
X145642Y19742D01*
X144980Y20184D01*
X144700Y20240D01*
D02*
G37*
G36*
X143700D02*
X143420Y20184D01*
X142758Y19742D01*
X142316Y19080D01*
X142260Y18800D01*
X143700D01*
Y20240D01*
D02*
G37*
G36*
X49540Y19454D02*
X48100D01*
Y18015D01*
X48380Y18070D01*
X49042Y18512D01*
X49484Y19174D01*
X49540Y19454D01*
D02*
G37*
G36*
X47100D02*
X45660D01*
X45716Y19174D01*
X46158Y18512D01*
X46820Y18070D01*
X47100Y18015D01*
Y19454D01*
D02*
G37*
G36*
X38940Y19100D02*
X37500D01*
Y17660D01*
X37780Y17716D01*
X38442Y18158D01*
X38884Y18820D01*
X38940Y19100D01*
D02*
G37*
G36*
X36500D02*
X35060D01*
X35116Y18820D01*
X35558Y18158D01*
X36220Y17716D01*
X36500Y17660D01*
Y19100D01*
D02*
G37*
G36*
X32040Y18900D02*
X30600D01*
Y17460D01*
X30880Y17516D01*
X31542Y17958D01*
X31984Y18620D01*
X32040Y18900D01*
D02*
G37*
G36*
X29600D02*
X28160D01*
X28216Y18620D01*
X28658Y17958D01*
X29320Y17516D01*
X29600Y17460D01*
Y18900D01*
D02*
G37*
G36*
X24840Y18700D02*
X23400D01*
Y17260D01*
X23680Y17316D01*
X24342Y17758D01*
X24784Y18420D01*
X24840Y18700D01*
D02*
G37*
G36*
X22400D02*
X20960D01*
X21016Y18420D01*
X21458Y17758D01*
X22120Y17316D01*
X22400Y17260D01*
Y18700D01*
D02*
G37*
G36*
X251100Y21740D02*
X250820Y21684D01*
X250158Y21242D01*
X249716Y20580D01*
X249660Y20300D01*
X251100D01*
Y21740D01*
D02*
G37*
G36*
X242700Y21540D02*
Y20100D01*
X244140D01*
X244084Y20380D01*
X243642Y21042D01*
X242980Y21484D01*
X242700Y21540D01*
D02*
G37*
G36*
X241700D02*
X241420Y21484D01*
X240758Y21042D01*
X240316Y20380D01*
X240260Y20100D01*
X241700D01*
Y21540D01*
D02*
G37*
G36*
X237300Y21440D02*
Y20000D01*
X238740D01*
X238684Y20280D01*
X238242Y20942D01*
X237580Y21384D01*
X237300Y21440D01*
D02*
G37*
G36*
X236300D02*
X236020Y21384D01*
X235358Y20942D01*
X234916Y20280D01*
X234860Y20000D01*
X236300D01*
Y21440D01*
D02*
G37*
G36*
X222700Y21040D02*
Y19600D01*
X224140D01*
X224084Y19880D01*
X223642Y20542D01*
X222980Y20984D01*
X222700Y21040D01*
D02*
G37*
G36*
X251100Y19300D02*
X249660D01*
X249716Y19020D01*
X250158Y18358D01*
X250820Y17916D01*
X251100Y17860D01*
Y19300D01*
D02*
G37*
G36*
X244140Y19100D02*
X242700D01*
Y17660D01*
X242980Y17716D01*
X243642Y18158D01*
X244084Y18820D01*
X244140Y19100D01*
D02*
G37*
G36*
X241700D02*
X240260D01*
X240316Y18820D01*
X240758Y18158D01*
X241420Y17716D01*
X241700Y17660D01*
Y19100D01*
D02*
G37*
G36*
X238740Y19000D02*
X237300D01*
Y17560D01*
X237580Y17616D01*
X238242Y18058D01*
X238684Y18720D01*
X238740Y19000D01*
D02*
G37*
G36*
X236300D02*
X234860D01*
X234916Y18720D01*
X235358Y18058D01*
X236020Y17616D01*
X236300Y17560D01*
Y19000D01*
D02*
G37*
G36*
X86900Y22740D02*
Y21300D01*
X88340D01*
X88284Y21580D01*
X87842Y22242D01*
X87180Y22684D01*
X86900Y22740D01*
D02*
G37*
G36*
X85900D02*
X85620Y22684D01*
X84958Y22242D01*
X84516Y21580D01*
X84460Y21300D01*
X85900D01*
Y22740D01*
D02*
G37*
G36*
X74400Y22340D02*
Y20900D01*
X75840D01*
X75784Y21180D01*
X75342Y21842D01*
X74680Y22284D01*
X74400Y22340D01*
D02*
G37*
G36*
X88340Y20300D02*
X86900D01*
Y18860D01*
X87180Y18916D01*
X87842Y19358D01*
X88284Y20020D01*
X88340Y20300D01*
D02*
G37*
G36*
X85900D02*
X84460D01*
X84516Y20020D01*
X84958Y19358D01*
X85620Y18916D01*
X85900Y18860D01*
Y20300D01*
D02*
G37*
G36*
X75840Y19900D02*
X74400D01*
Y18460D01*
X74680Y18516D01*
X75342Y18958D01*
X75784Y19620D01*
X75840Y19900D01*
D02*
G37*
%LPD*%
D16*
X34800Y53700D02*
X38400Y50100D01*
X39700D01*
X34700Y53700D02*
X34800D01*
X219306Y31206D02*
X222500Y34400D01*
X216113Y28013D02*
X219306Y31206D01*
X223594D02*
X223600Y31200D01*
X219306Y31206D02*
X223594D01*
X254700Y34400D02*
X256700Y36400D01*
X222500Y34400D02*
X254700D01*
X238900Y41000D02*
Y71293D01*
X210813Y28013D02*
X216113D01*
X114700Y81700D02*
X199900D01*
X210800Y92600D01*
X216370D01*
X75450Y38250D02*
X93200Y56000D01*
X186100D02*
X186900Y55200D01*
X93200Y56000D02*
X186100D01*
X186900Y55200D02*
X222100D01*
X225900Y74500D02*
X227800Y72600D01*
X228800Y64300D02*
Y64386D01*
X227800Y65386D02*
X228800Y64386D01*
X227800Y65386D02*
Y72600D01*
X210500Y73600D02*
X210686D01*
X211586Y72700D01*
X217900D01*
X207700Y76600D02*
X209900Y78800D01*
X208600Y64300D02*
Y64486D01*
X207700Y65386D02*
X208600Y64486D01*
X207700Y65386D02*
Y76600D01*
X218500Y64200D02*
Y72100D01*
X217900Y72700D02*
X218500Y72100D01*
X256700Y36400D02*
Y72800D01*
X250500Y79000D02*
X256700Y72800D01*
X198900Y64500D02*
Y72700D01*
X207600Y81400D01*
X226600Y79000D02*
X250500D01*
X208071Y25271D02*
X210813Y28013D01*
X207413D02*
X210813D01*
X208071Y5512D02*
Y25271D01*
X205400Y26000D02*
X207413Y28013D01*
X205709Y5512D02*
Y25691D01*
X238909Y72009D02*
X239100Y72200D01*
X238909Y71302D02*
Y72009D01*
X238900Y71293D02*
X238909Y71302D01*
X205400Y26000D02*
X205709Y25691D01*
X222100Y55200D02*
X224000Y53300D01*
X203346Y23946D02*
X205400Y26000D01*
X203346Y5512D02*
Y23946D01*
X213600Y20800D02*
X219100D01*
X211071Y18100D02*
X211171Y18200D01*
X211071Y18100D02*
X211200D01*
X211171Y18200D02*
X219414D01*
X73200Y36000D02*
X75450Y38250D01*
X72200Y39800D02*
X73750Y38250D01*
X75450D01*
X73200Y36000D02*
X74000D01*
X67900D02*
X73200D01*
X71063Y33063D02*
X74000Y36000D01*
X218000Y51700D02*
X218500D01*
X217200Y50900D02*
X218000Y51700D01*
X185500D02*
X192067D01*
X192867Y50900D01*
X217200D01*
X144291Y5512D02*
Y18938D01*
X252953Y5512D02*
Y18447D01*
X251600Y19800D02*
X252953Y18447D01*
X242200Y19600D02*
X242322Y19478D01*
Y18186D02*
Y19478D01*
Y18186D02*
X243504Y17004D01*
Y5512D02*
Y17004D01*
X236417Y5512D02*
Y18847D01*
X236800Y19229D01*
Y19500D01*
X222244Y5512D02*
Y19056D01*
X222200Y19100D02*
X222244Y19056D01*
X186811Y5512D02*
Y17589D01*
X186800Y17600D02*
X186811Y17589D01*
X179724Y5512D02*
Y16924D01*
X179800Y17000D01*
X165551Y5512D02*
Y16951D01*
X165600Y17000D01*
X158465Y5512D02*
Y17535D01*
X157300Y18700D02*
X158465Y17535D01*
X151378Y5512D02*
Y17222D01*
X150100Y18500D02*
X151378Y17222D01*
X144200Y19029D02*
X144291Y18938D01*
X144200Y18300D02*
Y19029D01*
X106500Y5516D02*
Y19350D01*
X111200Y6091D02*
X111600Y6491D01*
Y19400D01*
X123031Y5512D02*
Y17068D01*
X122900Y17200D02*
X123031Y17068D01*
X115945Y15845D02*
X117494Y17394D01*
X115945Y5512D02*
Y15845D01*
X108858Y5512D02*
Y17342D01*
X108800Y17400D02*
X108858Y17342D01*
X101772Y5512D02*
Y16772D01*
X102700Y17700D01*
X94685Y5512D02*
Y17315D01*
X94600Y17400D02*
X94685Y17315D01*
X80512Y5512D02*
Y16712D01*
X81400Y17600D01*
X87598Y5512D02*
Y19602D01*
X86400Y20800D02*
X87598Y19602D01*
X79500Y18000D02*
Y20500D01*
X73425Y5512D02*
Y19655D01*
X73900Y20129D01*
Y20400D01*
X52165Y5512D02*
Y17265D01*
X52200Y17300D01*
X45079Y5512D02*
Y17179D01*
X45100Y17200D01*
X37992Y5512D02*
Y18514D01*
X37000Y19506D02*
X37992Y18514D01*
X37000Y19506D02*
Y19600D01*
X30906Y5512D02*
Y18324D01*
X30100Y19129D02*
X30906Y18324D01*
X30100Y19129D02*
Y19400D01*
X16732Y5512D02*
Y17432D01*
X16800Y17500D01*
X23091Y18738D02*
X23819Y18011D01*
Y5512D02*
Y18011D01*
X23091Y18738D02*
Y18761D01*
X193800Y18000D02*
X193898Y17902D01*
Y5512D02*
Y17902D01*
X184700Y60100D02*
X191700Y67100D01*
X190600Y73500D02*
X191700Y72400D01*
Y67100D02*
Y72400D01*
X186700Y76500D02*
X186891Y76309D01*
X187584D01*
X188400Y75493D01*
Y66300D02*
Y75493D01*
X89486Y60100D02*
X184700D01*
X184200Y62100D02*
X188400Y66300D01*
X86700Y62100D02*
X184200D01*
X88900Y57200D02*
Y59514D01*
X89486Y60100D01*
X76850Y45150D02*
X88900Y57200D01*
X68750Y45150D02*
X76850D01*
X54300Y30700D02*
X68750Y45150D01*
X52500Y30700D02*
X54300D01*
X45200Y23400D02*
X52500Y30700D01*
X16800Y23400D02*
X45200D01*
X14400Y19700D02*
X14518Y19818D01*
Y21118D02*
X16800Y23400D01*
X14518Y19818D02*
Y21118D01*
X86200Y61600D02*
X86700Y62100D01*
X86200Y57400D02*
Y61600D01*
X69200Y48000D02*
X76800D01*
X86200Y57400D01*
X54300Y33100D02*
X69200Y48000D01*
X52400Y33100D02*
X54300D01*
X44500Y25200D02*
X52400Y33100D01*
X15800Y25200D02*
X44500D01*
X81400Y56900D02*
Y75600D01*
X82800Y77000D02*
X88800D01*
X81400Y75600D02*
X82800Y77000D01*
X110600Y69000D02*
X112200D01*
X109700Y69900D02*
Y76700D01*
Y69900D02*
X110600Y69000D01*
X109700Y76700D02*
X114700Y81700D01*
X74000Y36000D02*
X97500D01*
X71063Y5512D02*
Y33063D01*
X54528Y5512D02*
Y22628D01*
X67900Y36000D01*
X104450Y37250D02*
X104500Y37300D01*
X98750Y37250D02*
X104450D01*
X220000Y5630D02*
Y17614D01*
X219414Y18200D02*
X220000Y17614D01*
X218777Y20477D02*
X219100Y20800D01*
X229300Y5542D02*
X229331Y5512D01*
X136300Y16400D02*
X147650Y27750D01*
X128342Y16400D02*
X136300D01*
X127756Y5512D02*
Y15814D01*
X128342Y16400D01*
X113583Y16983D02*
X115946Y19346D01*
X99410Y5512D02*
Y17709D01*
X106500Y24800D02*
Y31214D01*
X99410Y17709D02*
X106500Y24800D01*
X107086Y31800D02*
X109200D01*
X92500Y27700D02*
X96700Y31900D01*
X101200D01*
X92500Y5689D02*
Y27700D01*
X98000Y21200D02*
Y29600D01*
X106500Y31214D02*
X107086Y31800D01*
X90000Y31914D02*
X92386Y34300D01*
X119900D01*
X111200Y6091D02*
X111500Y5791D01*
X97047Y20247D02*
X98000Y21200D01*
X97047Y5512D02*
Y20247D01*
X113583Y5512D02*
Y16983D01*
X111221Y5512D02*
X111500Y5791D01*
X106496Y5512D02*
X106500Y5516D01*
X90000Y5551D02*
Y31914D01*
X97500Y36000D02*
X98750Y37250D01*
X101000Y42000D02*
Y48500D01*
X93500Y42500D02*
Y50000D01*
X96000Y52500D02*
X100500D01*
X101000Y48500D02*
X103000Y50500D01*
X110000D01*
X93500Y50000D02*
X96000Y52500D01*
X78150Y5512D02*
Y16650D01*
X79500Y18000D01*
X89961Y5512D02*
X90000Y5551D01*
X92323Y5512D02*
X92500Y5689D01*
X224500Y5618D02*
X224606Y5512D01*
X226969D02*
X227000Y5543D01*
X219882Y5512D02*
X220000Y5630D01*
D52*
X9646Y5512D02*
D03*
X12008D02*
D03*
X14370D02*
D03*
X16732D02*
D03*
X19094D02*
D03*
X21457D02*
D03*
X23819D02*
D03*
X26181D02*
D03*
X28543D02*
D03*
X30906D02*
D03*
X33268D02*
D03*
X35630D02*
D03*
X37992D02*
D03*
X40354D02*
D03*
X42717D02*
D03*
X45079D02*
D03*
X47441D02*
D03*
X49803D02*
D03*
X52165D02*
D03*
X54528D02*
D03*
X71063D02*
D03*
X73425D02*
D03*
X75787D02*
D03*
X78150D02*
D03*
X80512D02*
D03*
X82874D02*
D03*
X85236D02*
D03*
X87598D02*
D03*
X89961D02*
D03*
X92323D02*
D03*
X94685D02*
D03*
X97047D02*
D03*
X99410D02*
D03*
X101772D02*
D03*
X104134D02*
D03*
X106496D02*
D03*
X108858D02*
D03*
X111221D02*
D03*
X113583D02*
D03*
X115945D02*
D03*
X118307D02*
D03*
X120669D02*
D03*
X123031D02*
D03*
X125394D02*
D03*
X127756D02*
D03*
X130118D02*
D03*
X132480D02*
D03*
X134843D02*
D03*
X137205D02*
D03*
X139567D02*
D03*
X141929D02*
D03*
X144291D02*
D03*
X146653D02*
D03*
X149016D02*
D03*
X151378D02*
D03*
X153740D02*
D03*
X156102D02*
D03*
X158465D02*
D03*
X160827D02*
D03*
X163189D02*
D03*
X165551D02*
D03*
X167913D02*
D03*
X170276D02*
D03*
X172638D02*
D03*
X175000D02*
D03*
X177362D02*
D03*
X179724D02*
D03*
X182087D02*
D03*
X184449D02*
D03*
X186811D02*
D03*
X189173D02*
D03*
X191535D02*
D03*
X193898D02*
D03*
X196260D02*
D03*
X198622D02*
D03*
X200984D02*
D03*
X203346D02*
D03*
X205709D02*
D03*
X208071D02*
D03*
X210433D02*
D03*
X212795D02*
D03*
X215158D02*
D03*
X217520D02*
D03*
X219882D02*
D03*
X222244D02*
D03*
X224606D02*
D03*
X226969D02*
D03*
X229331D02*
D03*
X231693D02*
D03*
X234055D02*
D03*
X236417D02*
D03*
X238779D02*
D03*
X241142D02*
D03*
X243504D02*
D03*
X245866D02*
D03*
X248228D02*
D03*
X250591D02*
D03*
X252953D02*
D03*
X255315D02*
D03*
X257677D02*
D03*
D53*
X25000Y64900D02*
D03*
X40400Y64400D02*
D03*
X204400Y108700D02*
D03*
X197800Y95100D02*
D03*
D54*
X7874Y23622D02*
D03*
X258268D02*
D03*
D55*
X39700Y50100D02*
D03*
X34700Y53700D02*
D03*
X223600Y31200D02*
D03*
X238900Y41000D02*
D03*
X215900Y86500D02*
D03*
X216370Y92600D02*
D03*
X225900Y74500D02*
D03*
X228800Y64300D02*
D03*
X210500Y73600D02*
D03*
X218500Y64200D02*
D03*
X209900Y78800D02*
D03*
X208600Y64300D02*
D03*
X207600Y81400D02*
D03*
X198900Y64500D02*
D03*
X226600Y79000D02*
D03*
X239100Y72200D02*
D03*
X224000Y53300D02*
D03*
X213600Y20800D02*
D03*
X211200Y18100D02*
D03*
X72200Y39800D02*
D03*
X218500Y51700D02*
D03*
X214300Y31700D02*
D03*
X185500Y51700D02*
D03*
X251600Y19800D02*
D03*
X242200Y19600D02*
D03*
X236800Y19500D02*
D03*
X222200Y19100D02*
D03*
X157300Y18700D02*
D03*
X150100Y18500D02*
D03*
X144200Y18300D02*
D03*
X106500Y19350D02*
D03*
X111600Y19400D02*
D03*
X86400Y20800D02*
D03*
X47600Y19954D02*
D03*
X73900Y20400D02*
D03*
X37000Y19600D02*
D03*
X30100Y19400D02*
D03*
X22900Y19200D02*
D03*
X191000Y33000D02*
D03*
X108600Y91900D02*
D03*
X131400Y108500D02*
D03*
X160300Y102200D02*
D03*
X97800Y39700D02*
D03*
X119600Y38000D02*
D03*
X193500Y102900D02*
D03*
X190600Y73500D02*
D03*
X186700Y76500D02*
D03*
X14400Y19700D02*
D03*
X15800Y25200D02*
D03*
X81400Y56900D02*
D03*
X112200Y69000D02*
D03*
X88800Y77000D02*
D03*
X104500Y37300D02*
D03*
X219100Y20800D02*
D03*
X147500Y27900D02*
D03*
X116000Y19291D02*
D03*
X109200Y31800D02*
D03*
X98000Y29600D02*
D03*
X101200Y31900D02*
D03*
X119900Y34300D02*
D03*
X101000Y42000D02*
D03*
X93500Y42500D02*
D03*
X100500Y52500D02*
D03*
X110000Y50500D02*
D03*
X79500Y20500D02*
D03*
M02*
